<svg width="200" height="200" viewBox="0 0 200 200" fill="none" xmlns="http://www.w3.org/2000/svg">
    <path d="M125.454 48.1769C123.631 46.0882 121.521 44.2544 119.183 42.7275C104.192 32.4874 104.676 18.5519 104.676 18.426C104.679 18.3603 104.665 18.2949 104.637 18.2355C104.608 18.176 104.565 18.1241 104.511 18.0842C104.458 18.0442 104.395 18.0175 104.328 18.0061C104.262 17.9948 104.193 17.9992 104.129 18.019C97.4939 20.4494 80.091 34.3966 93.9327 52.3409C95.2448 53.8459 95.9837 55.7454 96.0248 57.7191C96.0659 59.6927 95.4067 61.6198 94.1583 63.1754C93.4302 64.153 92.4041 64.8821 91.2258 65.2591C90.0475 65.636 88.777 65.6416 87.5953 65.2749C83.2852 63.9894 77.9464 60.2003 77.1103 49.6176C77.1086 49.5419 77.0839 49.4684 77.0391 49.4065C76.9943 49.3445 76.9316 49.297 76.859 49.27C76.7863 49.2429 76.707 49.2376 76.6312 49.2547C76.5554 49.2717 76.4866 49.3104 76.4335 49.3658C68.1411 58.6952 59.933 78.654 83.3815 89.102C86.1155 91.2982 100.796 92.8911 106.926 91.7023C111.915 91.3125 116.696 89.5893 120.743 86.7226C124.79 83.8559 127.946 79.957 129.862 75.4557C131.778 70.9545 132.38 66.0255 131.603 61.2122C130.825 56.3989 128.697 51.888 125.454 48.1769ZM128.221 97.9658H71.7354C71.6823 97.9677 71.6302 97.9798 71.582 98.0015C71.5338 98.0232 71.4905 98.054 71.4546 98.0922C71.4188 98.1304 71.3911 98.1751 71.3732 98.2238C71.3553 98.2724 71.3476 98.3241 71.3504 98.3757C71.3533 101.414 72.2052 104.395 73.8148 106.998C75.4244 109.602 77.7312 111.73 80.488 113.155C84.2477 114.873 88.419 115.555 92.5491 115.128H107.185C111.403 115.579 115.667 114.884 119.505 113.122C122.254 111.7 124.554 109.575 126.157 106.977C127.761 104.378 128.607 101.404 128.606 98.3728C128.609 98.3214 128.6 98.2701 128.582 98.2217C128.564 98.1734 128.537 98.129 128.501 98.0912C128.465 98.0533 128.422 98.0228 128.374 98.0012C128.326 97.9797 128.274 97.9677 128.221 97.9658ZM111.399 121.392H88.5578C87.848 121.392 87.1389 121.35 86.4343 121.266C87.4439 123.973 89.2853 126.313 91.7082 127.966C94.1311 129.619 97.0181 130.506 99.9768 130.506C102.935 130.506 105.822 129.619 108.245 127.966C110.668 126.313 112.51 123.973 113.519 121.266C112.815 121.35 112.109 121.392 111.399 121.392Z" fill="black"/>
    <path d="M99.9782 136.765C94.961 136.811 90.1036 135.048 86.3411 131.816L92.131 175.348C92.3779 177.187 93.3039 178.877 94.7362 180.101C96.1685 181.325 98.0092 182 99.9151 182C101.821 182 103.662 181.325 105.094 180.101C106.526 178.877 107.452 177.187 107.699 175.348L113.005 132.352C109.308 135.227 104.71 136.784 99.9782 136.765Z" fill="black"/>
    </svg>
    